<svg width="1024" height="1024" viewBox="0 0 1024 1024" fill="none" xmlns="http://www.w3.org/2000/svg">
<path fill-rule="evenodd" clip-rule="evenodd" d="M779.328 232.673C840.872 232.673 872 263.801 872 324.395V699.843C872 760.199 840.872 791.327 779.328 791.327H244.435C183.129 791.327 152 760.674 152 699.843V324.395C152 263.564 183.129 232.673 244.435 232.673H779.328ZM245.385 274.734C212.119 274.734 194.062 292.554 194.061 326.533V406.849H319.696L318.178 407.726C303.491 416.166 293.615 430.287 290.663 446.534H194.061V578.178H290.823C293.965 594.091 303.752 607.755 318.092 616.029L318.089 616.033L321.245 617.86H194.061V697.467C194.061 731.684 212.119 749.266 245.385 749.266H778.615C811.169 749.266 829.705 731.684 829.705 697.467V617.86H562.461L565.606 616.04L565.635 616.026L565.661 616.007C579.897 607.73 589.654 594.079 592.79 578.178H829.705V446.534H592.946C590.005 430.333 580.192 416.253 565.661 407.804L565.617 407.778L565.569 407.748L564.009 406.849H829.705V326.533C829.705 292.554 811.169 274.734 778.615 274.734H245.385Z" fill="black" style="fill:black;fill-opacity:1;"/>
</svg>
